<svg width="57" height="56" viewBox="0 0 57 56" fill="none" xmlns="http://www.w3.org/2000/svg">
<rect x="0.5" width="56" height="56" rx="4" fill="#161823"/>
<path d="M28.5 23.75C26.61 23.75 26.25 24.54 26.25 26V26.62H30.75V26C30.75 24.54 30.39 23.75 28.5 23.75Z" fill="#146EF5"/>
<path d="M28.5004 31.1004C29.1079 31.1004 29.6004 30.6079 29.6004 30.0004C29.6004 29.3929 29.1079 28.9004 28.5004 28.9004C27.8929 28.9004 27.4004 29.3929 27.4004 30.0004C27.4004 30.6079 27.8929 31.1004 28.5004 31.1004Z" fill="#146EF5"/>
<path d="M28.5 18C22.98 18 18.5 22.48 18.5 28C18.5 33.52 22.98 38 28.5 38C34.02 38 38.5 33.52 38.5 28C38.5 22.48 34.02 18 28.5 18ZM33.88 30.5C33.88 32.7 33.2 33.38 31 33.38H26C23.8 33.38 23.12 32.7 23.12 30.5V29.5C23.12 27.79 23.53 27 24.75 26.73V26C24.75 25.07 24.75 22.25 28.5 22.25C32.25 22.25 32.25 25.07 32.25 26V26.73C33.47 27 33.88 27.79 33.88 29.5V30.5Z" fill="#146EF5"/>
</svg>
