<svg width="24" height="24" viewBox="0 0 24 24" fill="none" xmlns="http://www.w3.org/2000/svg">
<path d="M12 22C12.244 22 12.471 21.887 12.926 21.66L16.576 19.843C18.193 19.04 19 18.637 19 18V10M12 22C11.756 22 11.529 21.887 11.074 21.66L7.424 19.843C5.807 19.04 5 18.637 5 18V10M12 22V14M19 10C19 9.363 18.192 8.961 16.577 8.157L12.926 6.339C12.47 6.113 12.244 6 12 6M19 10C19 10.637 18.192 11.039 16.577 11.843L12.926 13.661C12.471 13.887 12.244 14 12 14M5 10C5 9.363 5.807 8.96 7.424 8.157L11.074 6.34C11.529 6.113 11.756 6 12 6M5 10C5 10.637 5.808 11.039 7.423 11.843L11.074 13.661C11.529 13.887 11.756 14 12 14M12 6V2M22 21L19 18.5M2 21L5 18.5" stroke="white" stroke-width="1.5" stroke-linecap="round" stroke-linejoin="round"/>
</svg>
