<svg width="56" height="56" viewBox="0 0 56 56" fill="none" xmlns="http://www.w3.org/2000/svg">
<rect width="56" height="56" rx="4" fill="#161823"/>
<path d="M37.0891 22.9795C36.2391 22.0395 34.8191 21.5695 32.7591 21.5695H32.5191V21.5295C32.5191 19.8495 32.5191 17.7695 28.7591 17.7695H27.2391C23.4791 17.7695 23.4791 19.8595 23.4791 21.5295V21.5795H23.2391C21.1691 21.5795 19.7591 22.0495 18.9091 22.9895C17.9191 24.0895 17.9491 25.5695 18.0491 26.5795L18.0591 26.6495L18.1365 27.4628C18.1508 27.6126 18.2314 27.7479 18.3573 27.8303C18.5971 27.9872 18.9985 28.2459 19.2391 28.3795C19.3791 28.4695 19.5291 28.5495 19.6791 28.6295C21.3891 29.5695 23.2691 30.1995 25.1791 30.5095C25.2691 31.4495 25.6791 32.5495 27.8691 32.5495C30.0591 32.5495 30.4891 31.4595 30.5591 30.4895C32.5991 30.1595 34.5691 29.4495 36.3491 28.4095C36.4091 28.3795 36.4491 28.3495 36.4991 28.3195C36.8958 28.0953 37.3074 27.819 37.6825 27.5484C37.7955 27.4668 37.8678 27.3408 37.8832 27.2023L37.8991 27.0595L37.9491 26.5895C37.9591 26.5295 37.9591 26.4795 37.9691 26.4095C38.0491 25.3995 38.0291 24.0195 37.0891 22.9795ZM29.0891 29.8295C29.0891 30.8895 29.0891 31.0495 27.8591 31.0495C26.6291 31.0495 26.6291 30.8595 26.6291 29.8395V28.5795H29.0891V29.8295ZM24.9091 21.5695V21.5295C24.9091 19.8295 24.9091 19.1995 27.2391 19.1995H28.7591C31.0891 19.1995 31.0891 19.8395 31.0891 21.5295V21.5795H24.9091V21.5695Z" fill="#146EF5"/>
<path d="M36.8733 29.7339C37.2269 29.5656 37.6342 29.8459 37.5988 30.2359L37.2398 34.1897C37.0298 36.1897 36.2098 38.2297 31.8098 38.2297H24.1898C19.7898 38.2297 18.9698 36.1897 18.7598 34.1997L18.4191 30.4519C18.3841 30.0664 18.782 29.7865 19.1347 29.946C20.2741 30.4615 22.3772 31.3761 23.6764 31.7164C23.8407 31.7594 23.9736 31.877 24.0456 32.0309C24.6525 33.329 25.969 34.0197 27.8698 34.0197C29.752 34.0197 31.085 33.3024 31.694 32.0011C31.766 31.8471 31.8991 31.7296 32.0635 31.6863C33.443 31.3233 35.6816 30.301 36.8733 29.7339Z" fill="#146EF5"/>
</svg>
