<svg width="24" height="24" viewBox="0 0 24 24" fill="none" xmlns="http://www.w3.org/2000/svg">
<path d="M20 14.9999V7.49988L13.75 3.98438M10.25 3.98438L4 7.49988V14.9999M5.5 17.3439L12 20.9999L16 18.7499L18.5 17.3439M12 8.49988L13.5 9.37488L15 10.2499V13.7499L13.5 14.6249L12 15.4999L10.5 14.6249L9 13.7499V10.2499L10.5 9.37488L12 8.49988ZM12 8.49988V4.99988M15 13.4999L18.5 15.4999M9 13.4999L5.5 15.4999" stroke="black" stroke-width="2" stroke-linecap="round" stroke-linejoin="round"/>
<path d="M12 5C12.8284 5 13.5 4.32843 13.5 3.5C13.5 2.67157 12.8284 2 12 2C11.1716 2 10.5 2.67157 10.5 3.5C10.5 4.32843 11.1716 5 12 5Z" stroke="black" stroke-width="2" stroke-linecap="round" stroke-linejoin="round"/>
<path d="M4 18C4.82843 18 5.5 17.3284 5.5 16.5C5.5 15.6716 4.82843 15 4 15C3.17157 15 2.5 15.6716 2.5 16.5C2.5 17.3284 3.17157 18 4 18Z" stroke="black" stroke-width="2" stroke-linecap="round" stroke-linejoin="round"/>
<path d="M20 18C20.8284 18 21.5 17.3284 21.5 16.5C21.5 15.6716 20.8284 15 20 15C19.1716 15 18.5 15.6716 18.5 16.5C18.5 17.3284 19.1716 18 20 18Z" stroke="black" stroke-width="2" stroke-linecap="round" stroke-linejoin="round"/>
</svg>
