<svg width="18" height="18" viewBox="0 0 18 18" fill="none" xmlns="http://www.w3.org/2000/svg">
<g clip-path="url(#clip0_1267_1144)">
<path d="M9 18C13.6944 18 17.5 14.1944 17.5 9.5C17.5 4.80558 13.6944 1 9 1C4.30558 1 0.5 4.80558 0.5 9.5C0.5 14.1944 4.30558 18 9 18Z" fill="#F4900C"/>
<path d="M9 17C13.6944 17 17.5 13.1944 17.5 8.5C17.5 3.80558 13.6944 0 9 0C4.30558 0 0.5 3.80558 0.5 8.5C0.5 13.1944 4.30558 17 9 17Z" fill="#FFCC4D"/>
<path d="M9 16C12.866 16 16 12.866 16 9C16 5.13401 12.866 2 9 2C5.13401 2 2 5.13401 2 9C2 12.866 5.13401 16 9 16Z" fill="#FFE8B6"/>
<path d="M9 15.5C12.866 15.5 16 12.366 16 8.5C16 4.63401 12.866 1.5 9 1.5C5.13401 1.5 2 4.63401 2 8.5C2 12.366 5.13401 15.5 9 15.5Z" fill="#FFAC33"/>
<path d="M9.00048 4.17188C9.00048 4.17188 6.27298 5.45737 6.00098 5.57337C5.72848 5.68887 5.81948 5.87887 6.00148 5.87887H11.9865C12.2675 5.87887 12.201 5.66437 11.978 5.54837C11.755 5.43287 9.00048 4.17188 9.00048 4.17188Z" fill="#FFAC33"/>
</g>
<defs>
<clipPath id="clip0_1267_1144">
<rect width="18" height="18" fill="white"/>
</clipPath>
</defs>
</svg>
