<svg width="24" height="24" viewBox="0 0 24 24" fill="none" xmlns="http://www.w3.org/2000/svg">
<path d="M21.4004 7.50078C22.2004 8.30078 22.2004 9.60078 21.4004 10.3008L19.3075 12.3937C18.917 12.7842 18.2838 12.7842 17.8933 12.3937L11.5075 6.00789C11.117 5.61736 11.117 4.9842 11.5075 4.59367L13.6004 2.50078C14.4004 1.70078 15.7004 1.70078 16.4004 2.50078L17.4933 3.59368C17.8838 3.9842 18.517 3.9842 18.9075 3.59367L20.5004 2.00078C20.887 1.61418 21.5138 1.61418 21.9004 2.00078V2.00078C22.287 2.38738 22.287 3.01418 21.9004 3.40078L20.3075 4.99367C19.917 5.3842 19.917 6.01736 20.3075 6.40789L21.4004 7.50078ZM14.9188 14.0067C15.2972 13.6148 15.2917 12.9921 14.9065 12.6069V12.6069C14.5165 12.2169 13.8842 12.2169 13.4943 12.6069L12.1075 13.9937C11.717 14.3842 11.0838 14.3842 10.6933 13.9937L10.0075 13.3079C9.61697 12.9174 9.61697 12.2842 10.0075 11.8937L11.4004 10.5008C11.787 10.1142 11.787 9.48738 11.4004 9.10078V9.10078C11.0138 8.71418 10.387 8.71418 10.0004 9.10078L8.58353 10.5176C8.20249 10.8987 7.58805 10.9093 7.19411 10.5416L7.10667 10.46C6.71273 10.0923 6.09829 10.1029 5.71725 10.4839L3.60039 12.6008C2.80039 13.4008 2.80039 14.7008 3.60039 15.4008L4.69328 16.4937C5.08381 16.8842 5.08381 17.5174 4.69328 17.9079L2.10039 20.5008C1.71379 20.8874 1.71379 21.5142 2.10039 21.9008V21.9008C2.48699 22.2874 3.11379 22.2874 3.50039 21.9008L6.09329 19.3079C6.48381 18.9174 7.11697 18.9174 7.5075 19.3079L8.60039 20.4008C9.40039 21.2008 10.7004 21.2008 11.4004 20.4008L13.4943 18.3069C13.8842 17.9169 13.8842 17.2846 13.4943 16.8946V16.8946C13.1091 16.5095 13.1036 15.8867 13.482 15.4949L14.9188 14.0067Z" fill="white"/>
</svg>
