<svg width="32" height="32" viewBox="0 0 32 32" fill="none" xmlns="http://www.w3.org/2000/svg">
<path d="M28.5329 10.0001C29.5995 11.0667 29.5995 12.8001 28.5329 13.7334L25.5067 16.7596C25.1161 17.1501 24.483 17.1501 24.0924 16.7596L15.1067 7.77384C14.7161 7.38331 14.7161 6.75015 15.1067 6.35963L18.1329 3.3334C19.1995 2.26673 20.9329 2.26673 21.8662 3.3334L23.5591 5.02629C23.9496 5.41682 24.5828 5.41682 24.9733 5.02629L27.5591 2.4405C27.9496 2.04998 28.5828 2.04998 28.9733 2.44051L29.4258 2.89296C29.8163 3.28348 29.8163 3.91665 29.4258 4.30717L26.84 6.89296C26.4495 7.28348 26.4495 7.91665 26.84 8.30717L28.5329 10.0001ZM20.117 18.4403C20.4959 18.0479 20.4904 17.4243 20.1047 17.0386L19.64 16.5738C19.2495 16.1833 18.6163 16.1833 18.2258 16.5738L15.9067 18.893C15.5161 19.2835 14.883 19.2835 14.4924 18.893L13.1067 17.5072C12.7161 17.1166 12.7161 16.4835 13.1067 16.093L15.4258 13.7738C15.8163 13.3833 15.8163 12.7501 15.4258 12.3596L14.9733 11.9072C14.5828 11.5166 13.9496 11.5166 13.5591 11.9072L11.216 14.2503C10.835 14.6313 10.2205 14.6419 9.8266 14.2742L9.23916 13.7259C8.84521 13.3582 8.23077 13.3688 7.84973 13.7499L4.79954 16.8001C3.73288 17.8667 3.73288 19.6001 4.79954 20.5334L6.49244 22.2263C6.88296 22.6168 6.88296 23.25 6.49244 23.6405L2.57332 27.5596C2.18279 27.9502 2.18279 28.5833 2.57332 28.9738L3.02577 29.4263C3.41629 29.8168 4.04946 29.8168 4.43998 29.4263L8.3591 25.5072C8.74963 25.1167 9.38279 25.1166 9.77332 25.5072L11.4662 27.2001C12.5329 28.2667 14.2662 28.2667 15.1995 27.2001L18.2258 24.1738C18.6163 23.7833 18.6163 23.1502 18.2258 22.7596L17.761 22.2949C17.3753 21.9092 17.3699 21.2856 17.7487 20.8932L20.117 18.4403Z" fill="white"/>
</svg>
