<svg width="24" height="24" viewBox="0 0 24 24" fill="none" xmlns="http://www.w3.org/2000/svg">
<path d="M11.0504 12L7.17542 6.575C6.94209 6.24167 6.91309 5.896 7.08842 5.538C7.26376 5.18 7.55942 5.00067 7.97542 5C8.14209 5 8.30042 5.03767 8.45042 5.113C8.60042 5.18833 8.71709 5.29233 8.80042 5.425L13.5004 12L8.80042 18.575C8.71709 18.7083 8.60042 18.8127 8.45042 18.888C8.30042 18.9633 8.14209 19.0007 7.97542 19C7.57542 19 7.28376 18.821 7.10042 18.463C6.91709 18.105 6.94209 17.759 7.17542 17.425L11.0504 12ZM17.0004 12L13.1254 6.575C12.8921 6.24167 12.8628 5.896 13.0374 5.538C13.2121 5.18 13.5084 5.00067 13.9264 5C14.0931 5 14.2514 5.03767 14.4014 5.113C14.5514 5.18833 14.6681 5.29233 14.7514 5.425L19.4504 12L14.7504 18.575C14.6671 18.7083 14.5504 18.8127 14.4004 18.888C14.2504 18.9633 14.0921 19.0007 13.9254 19C13.5254 19 13.2338 18.821 13.0504 18.463C12.8671 18.105 12.8921 17.759 13.1254 17.425L17.0004 12Z" fill="white"/>
</svg>
