<svg width="36" height="45" viewBox="0 0 36 45" fill="none" xmlns="http://www.w3.org/2000/svg">
<path d="M29.8029 15.8824H25.7143V2.64706C25.7143 1.19118 24.5571 0 23.1429 0H12.8571C11.4429 0 10.2857 1.19118 10.2857 2.64706V15.8824H6.19714C3.90857 15.8824 2.75143 18.7412 4.37143 20.4088L16.1743 32.5588C17.1771 33.5912 18.7971 33.5912 19.8 32.5588L31.6029 20.4088C33.2229 18.7412 32.0914 15.8824 29.8029 15.8824ZM0 42.3529C0 43.8088 1.15714 45 2.57143 45H33.4286C34.8429 45 36 43.8088 36 42.3529C36 40.8971 34.8429 39.7059 33.4286 39.7059H2.57143C1.15714 39.7059 0 40.8971 0 42.3529Z" fill="white"/>
</svg>
