<svg width="52" height="52" viewBox="0 0 52 52" fill="none" xmlns="http://www.w3.org/2000/svg">
<path fill-rule="evenodd" clip-rule="evenodd" d="M30.8756 5.41667C30.8756 5.27301 30.8186 5.13523 30.717 5.03365C30.6154 4.93207 30.4776 4.875 30.334 4.875H15.1673C13.5871 4.875 12.0715 5.50275 10.9541 6.62016C9.83674 7.73756 9.20898 9.25309 9.20898 10.8333V41.1667C9.20898 42.7469 9.83674 44.2624 10.9541 45.3798C12.0715 46.4973 13.5871 47.125 15.1673 47.125H36.834C38.4142 47.125 39.9298 46.4973 41.0472 45.3798C42.1646 44.2624 42.7923 42.7469 42.7923 41.1667V19.8185C42.7923 19.6748 42.7352 19.5371 42.6337 19.4355C42.5321 19.3339 42.3943 19.2768 42.2506 19.2768H32.5006C32.0697 19.2768 31.6563 19.1056 31.3516 18.8009C31.0469 18.4961 30.8756 18.0828 30.8756 17.6518V5.41667ZM30.4011 28.522C30.7379 28.2525 31.1679 28.1278 31.5966 28.1753C32.0252 28.2229 32.4175 28.4388 32.687 28.7755C32.9565 29.1122 33.0812 29.5422 33.0336 29.9709C32.9861 30.3996 32.7702 30.7918 32.4335 31.0613L27.0298 35.3838C26.7404 35.6201 26.3785 35.7494 26.005 35.75H25.9877C25.6208 35.7473 25.2658 35.6205 24.9802 35.3903L19.57 31.0613C19.2332 30.7921 19.0172 30.4002 18.9695 29.9717C18.9218 29.5432 19.0462 29.1133 19.3154 28.7766C19.5846 28.4398 19.9766 28.2238 20.405 28.1761C20.8335 28.1284 21.2634 28.2528 21.6001 28.522L24.3756 30.745V23.2917C24.3756 23.0783 24.4177 22.867 24.4993 22.6698C24.581 22.4727 24.7007 22.2935 24.8516 22.1426C25.0025 21.9917 25.1816 21.872 25.3788 21.7904C25.5759 21.7087 25.7873 21.6667 26.0006 21.6667C26.214 21.6667 26.4254 21.7087 26.6225 21.7904C26.8197 21.872 26.9988 21.9917 27.1497 22.1426C27.3006 22.2935 27.4203 22.4727 27.502 22.6698C27.5836 22.867 27.6256 23.0783 27.6256 23.2917V30.745L30.4011 28.522Z" fill="white"/>
<path d="M34.125 6.11914C34.125 5.72048 34.5432 5.46698 34.853 5.71614C35.1159 5.92848 35.3492 6.17548 35.5528 6.45714L42.081 15.5506C42.2283 15.7586 42.068 16.0273 41.8123 16.0273H34.6667C34.523 16.0273 34.3852 15.9702 34.2837 15.8687C34.1821 15.7671 34.125 15.6293 34.125 15.4856V6.11914Z" fill="white"/>
</svg>
