<svg width="24" height="24" viewBox="0 0 24 24" fill="none" xmlns="http://www.w3.org/2000/svg">
<path d="M8.68568 4.16589L8.68719 4.16526C10.7673 3.30107 13.1031 3.28544 15.1947 4.12174L15.4988 4.24335L15.5088 4.57074C15.5246 5.08806 15.7413 5.57887 16.113 5.93906C16.4847 6.29924 16.982 6.50045 17.4996 6.5H17.5C18.6099 6.5 19.5 5.60986 19.5 4.5C19.5 3.39014 18.6099 2.5 17.5 2.5C16.9473 2.5 16.45 2.72074 16.0898 3.07934L15.8567 3.31144L15.5512 3.1892C13.2411 2.26456 10.5856 2.27943 8.29628 3.24472L8.29551 3.24505C7.16636 3.7189 6.14068 4.40882 5.27611 5.27602L5.27492 5.27721C4.40748 6.14142 3.71725 7.16677 3.243 8.29566L3.24292 8.29584C2.81452 9.31449 2.56762 10.3989 2.51207 11.5H3.51402C3.56837 10.5543 3.78052 9.62303 4.14278 8.7452C4.56882 7.71281 5.19414 6.77451 5.983 5.98392L8.68568 4.16589ZM8.68568 4.16589C7.67483 4.58974 6.75671 5.20733 5.98309 5.98383L8.68568 4.16589ZM19.8338 15.3161L19.8338 15.316C20.211 14.4204 20.4313 13.4678 20.4863 12.5H21.4879C21.432 13.6011 21.1848 14.6855 20.7562 15.704C20.0303 17.4252 18.812 18.8935 17.2545 19.9247C15.6968 20.9559 13.8692 21.504 12.0011 21.5H12.0001C10.7835 21.4998 9.5783 21.266 8.44993 20.8112L8.14401 20.6879L7.91026 20.9207C7.55006 21.2793 7.05276 21.5 6.50002 21.5C5.39017 21.5 4.50002 20.6099 4.50002 19.5C4.50002 18.3901 5.39017 17.5 6.50002 17.5H6.50046C7.01802 17.4996 7.51539 17.7008 7.88706 18.0609C8.25874 18.4211 8.47546 18.9119 8.49126 19.4293L8.50125 19.7567L8.80539 19.8783C10.8969 20.7146 13.2327 20.6989 15.3129 19.8347L15.3149 19.8339C16.3278 19.4077 17.238 18.7951 18.0166 18.0166C18.7951 17.238 19.4076 16.3279 19.8338 15.3161Z" fill="white" stroke="white"/>
<path d="M11.9999 7.46191C9.49791 7.46191 7.46191 9.49791 7.46191 11.9999C7.46191 14.5019 9.49791 16.5379 11.9999 16.5379C14.5019 16.5379 16.5379 14.5019 16.5379 11.9999C16.5379 9.49791 14.5019 7.46191 11.9999 7.46191ZM11.9999 14.5379C10.6009 14.5379 9.46191 13.3989 9.46191 11.9999C9.46191 10.6009 10.6009 9.46191 11.9999 9.46191C13.3989 9.46191 14.5379 10.6009 14.5379 11.9999C14.5379 13.3989 13.3989 14.5379 11.9999 14.5379Z" fill="white"/>
</svg>
