<svg width="16" height="16" viewBox="0 0 16 16" fill="none" xmlns="http://www.w3.org/2000/svg">
<rect width="16" height="16" rx="2" fill="#030610"/>
<path d="M2 10.9227V4.08702H3.08118V10.9227H2Z" fill="#146EF5"/>
<path d="M5.76426 10.9227V5.18923H3.85273V4.08702H8.74831V5.18923H6.83679V10.9227H5.76426Z" fill="#146EF5"/>
<path d="M11.7079 11C11.2985 11 10.9122 10.9323 10.5489 10.797C10.1914 10.6552 9.89152 10.4328 9.64934 10.1298C9.40715 9.82044 9.24858 9.41759 9.17362 8.92127H10.2721C10.3413 9.17265 10.4509 9.36925 10.6008 9.51105C10.7565 9.65285 10.9381 9.75276 11.1457 9.81077C11.3533 9.86234 11.5637 9.88812 11.7771 9.88812C11.9674 9.88812 12.1461 9.86234 12.3134 9.81077C12.4863 9.75276 12.6276 9.6593 12.7372 9.53039C12.8525 9.40147 12.9102 9.23066 12.9102 9.01796C12.9102 8.85681 12.8785 8.7279 12.815 8.63122C12.7574 8.52808 12.6738 8.44429 12.5642 8.37983C12.4604 8.30893 12.3335 8.25414 12.1836 8.21547C12.0395 8.1639 11.8838 8.11878 11.7166 8.08011C11.5493 8.04144 11.385 7.99954 11.2235 7.95442C11.0621 7.9093 10.9093 7.85129 10.7651 7.78039C10.5806 7.70948 10.4018 7.62891 10.2288 7.53867C10.0616 7.44199 9.91459 7.32597 9.78773 7.19061C9.66664 7.05525 9.56861 6.88766 9.49365 6.68785C9.41869 6.48803 9.3812 6.24954 9.3812 5.97238C9.3812 5.65654 9.42734 5.38582 9.5196 5.16022C9.61762 4.92818 9.74448 4.73803 9.90017 4.58978C10.0616 4.44153 10.2404 4.32551 10.4364 4.24171C10.6383 4.15792 10.8458 4.09668 11.0592 4.05801C11.2783 4.01934 11.4859 4 11.682 4C12.0625 4 12.4085 4.0709 12.7199 4.21271C13.037 4.35451 13.2965 4.57366 13.4983 4.87017C13.7002 5.16667 13.8155 5.54696 13.8443 6.01105H12.7977C12.7747 5.7919 12.7055 5.61786 12.5901 5.48895C12.4748 5.35359 12.3307 5.25691 12.1577 5.1989C11.9847 5.13444 11.7973 5.10221 11.5955 5.10221C11.4571 5.10221 11.3187 5.1151 11.1803 5.14088C11.0477 5.16667 10.9266 5.21179 10.817 5.27624C10.7132 5.3407 10.6267 5.42772 10.5575 5.53729C10.4941 5.64042 10.4624 5.77256 10.4624 5.9337C10.4624 6.07551 10.4941 6.2012 10.5575 6.31077C10.621 6.4139 10.7075 6.50092 10.817 6.57182C10.9323 6.64273 11.0678 6.70718 11.2235 6.76519C11.4254 6.85543 11.6445 6.92311 11.8809 6.96823C12.1231 7.01335 12.3508 7.07459 12.5642 7.15193C12.7718 7.21639 12.9621 7.29696 13.1351 7.39365C13.3138 7.48389 13.4666 7.59669 13.5935 7.73204C13.7203 7.86096 13.8184 8.0221 13.8876 8.21547C13.9625 8.40239 14 8.62799 14 8.89227C14 9.27901 13.9366 9.60774 13.8097 9.87845C13.6886 10.1427 13.5185 10.3587 13.2994 10.5262C13.086 10.6938 12.841 10.8163 12.5642 10.8936C12.2932 10.9645 12.0077 11 11.7079 11Z" fill="#146EF5"/>
</svg>
