<svg width="24" height="24" viewBox="0 0 24 24" fill="none" xmlns="http://www.w3.org/2000/svg">
<path d="M20.4852 9.45487H12.8488V6.90942C12.8488 6.23432 13.117 5.58687 13.5944 5.10951C14.0717 4.63214 14.7192 4.36396 15.3943 4.36396C15.6193 4.36396 15.8351 4.27457 15.9942 4.11545C16.1534 3.95632 16.2427 3.74051 16.2427 3.51548C16.2427 3.29044 16.1534 3.07463 15.9942 2.91551C15.8351 2.75639 15.6193 2.66699 15.3943 2.66699C14.5951 2.66943 13.8129 2.89785 13.1381 3.32589C12.4632 3.75393 11.9232 4.36413 11.5803 5.08602C10.6921 4.21162 9.52733 3.67348 8.28576 3.56387C7.04418 3.45426 5.80315 3.78003 4.77548 4.4853C4.60276 4.589 4.47258 4.75077 4.40823 4.94166C4.34387 5.13256 4.34953 5.34013 4.4242 5.52723C4.97446 6.76763 5.98421 7.74637 7.24117 8.25766C7.80242 8.4693 8.39772 8.57628 8.99754 8.57329C9.73267 8.55959 10.4605 8.42485 11.1518 8.17451V9.45487H3.51548C3.29044 9.45487 3.07463 9.54426 2.91551 9.70339C2.75639 9.86251 2.66699 10.0783 2.66699 10.3034V20.4852C2.66699 20.7102 2.75639 20.926 2.91551 21.0851C3.07463 21.2443 3.29044 21.3337 3.51548 21.3337H20.4852C20.7102 21.3337 20.926 21.2443 21.0851 21.0851C21.2443 20.926 21.3337 20.7102 21.3337 20.4852V10.3034C21.3337 10.0783 21.2443 9.86251 21.0851 9.70339C20.926 9.54426 20.7102 9.45487 20.4852 9.45487ZM7.86226 6.67863C7.27922 6.45082 6.77242 6.06285 6.40033 5.55948C7.12405 5.24778 7.92878 5.17692 8.69584 5.35734C9.4629 5.53776 10.1517 5.95991 10.6606 6.56154C9.77083 6.9295 8.77963 6.97097 7.86226 6.67863ZM19.6367 18.0958C19.2814 18.2219 18.9588 18.4257 18.6922 18.6922C18.4257 18.9588 18.2219 19.2814 18.0958 19.6367H5.90481C5.77873 19.2814 5.575 18.9588 5.30844 18.6922C5.04188 18.4257 4.71922 18.2219 4.36396 18.0958V12.6927C4.71922 12.5666 5.04188 12.3629 5.30844 12.0963C5.575 11.8298 5.77873 11.5071 5.90481 11.1518H18.0958C18.2219 11.5071 18.4257 11.8298 18.6922 12.0963C18.9588 12.3629 19.2814 12.5666 19.6367 12.6927V18.0958ZM13.6973 15.3943C13.6973 15.7299 13.5978 16.058 13.4113 16.3371C13.2248 16.6161 12.9598 16.8336 12.6497 16.9621C12.3396 17.0905 11.9984 17.1241 11.6693 17.0586C11.3401 16.9931 11.0377 16.8315 10.8004 16.5942C10.5631 16.3569 10.4014 16.0545 10.336 15.7253C10.2705 15.3961 10.3041 15.0549 10.4325 14.7449C10.561 14.4348 10.7785 14.1698 11.0575 13.9833C11.3366 13.7968 11.6647 13.6973 12.0003 13.6973C12.4504 13.6973 12.882 13.8761 13.2003 14.1943C13.5185 14.5126 13.6973 14.9442 13.6973 15.3943Z" fill="#146EF5"/>
</svg>
