<svg width="32" height="32" viewBox="0 0 32 32" fill="none" xmlns="http://www.w3.org/2000/svg">
<path d="M15.9998 29.3334C14.1776 29.3334 12.4554 28.9832 10.8332 28.2827C9.21095 27.5823 7.7945 26.6267 6.58384 25.4161C5.37317 24.2054 4.41762 22.789 3.71717 21.1667C3.01673 19.5445 2.6665 17.8223 2.6665 16.0001C2.6665 14.1556 3.01673 12.4281 3.71717 10.8174C4.41762 9.20675 5.37317 7.79564 6.58384 6.58408C7.7945 5.37253 9.21095 4.41697 10.8332 3.71741C12.4554 3.01786 14.1776 2.66764 15.9998 2.66675C17.8443 2.66675 19.5723 3.01697 21.1838 3.71741C22.7954 4.41786 24.2061 5.37341 25.4158 6.58408C26.6256 7.79475 27.5812 9.20586 28.2825 10.8174C28.9838 12.429 29.3341 14.1565 29.3332 16.0001C29.3332 17.8223 28.9829 19.5445 28.2825 21.1667C27.5821 22.789 26.6265 24.2059 25.4158 25.4174C24.2052 26.629 22.7941 27.5845 21.1825 28.2841C19.5709 28.9836 17.8434 29.3334 15.9998 29.3334ZM15.9998 26.6001C16.5776 25.8001 17.0776 24.9667 17.4998 24.1001C17.9221 23.2334 18.2665 22.3112 18.5332 21.3334H13.4665C13.7332 22.3112 14.0776 23.2334 14.4998 24.1001C14.9221 24.9667 15.4221 25.8001 15.9998 26.6001ZM12.5332 26.0667C12.1332 25.3334 11.7834 24.5721 11.4838 23.7827C11.1843 22.9934 10.9341 22.177 10.7332 21.3334H6.79984C7.44428 22.4445 8.25006 23.4112 9.21717 24.2334C10.1843 25.0556 11.2896 25.6667 12.5332 26.0667ZM19.4665 26.0667C20.7109 25.6667 21.8167 25.0556 22.7838 24.2334C23.7509 23.4112 24.5563 22.4445 25.1998 21.3334H21.2665C21.0665 22.1779 20.8167 22.9947 20.5172 23.7841C20.2176 24.5734 19.8674 25.3343 19.4665 26.0667ZM5.6665 18.6667H10.1998C10.1332 18.2223 10.0834 17.7836 10.0505 17.3507C10.0176 16.9179 10.0007 16.4676 9.99984 16.0001C9.99895 15.5325 10.0158 15.0827 10.0505 14.6507C10.0852 14.2187 10.1349 13.7796 10.1998 13.3334H5.6665C5.55539 13.7779 5.47228 14.217 5.41717 14.6507C5.36206 15.0845 5.33406 15.5343 5.33317 16.0001C5.33228 16.4659 5.36028 16.9161 5.41717 17.3507C5.47406 17.7854 5.55717 18.2241 5.6665 18.6667ZM12.8665 18.6667H19.1332C19.1998 18.2223 19.2501 17.7836 19.2838 17.3507C19.3176 16.9179 19.3341 16.4676 19.3332 16.0001C19.3323 15.5325 19.3154 15.0827 19.2825 14.6507C19.2496 14.2187 19.1998 13.7796 19.1332 13.3334H12.8665C12.7998 13.7779 12.7501 14.217 12.7172 14.6507C12.6843 15.0845 12.6674 15.5343 12.6665 16.0001C12.6656 16.4659 12.6825 16.9161 12.7172 17.3507C12.7518 17.7854 12.8016 18.2241 12.8665 18.6667ZM21.7998 18.6667H26.3332C26.4443 18.2223 26.5278 17.7836 26.5838 17.3507C26.6398 16.9179 26.6674 16.4676 26.6665 16.0001C26.6656 15.5325 26.6381 15.0827 26.5838 14.6507C26.5296 14.2187 26.4461 13.7796 26.3332 13.3334H21.7998C21.8665 13.7779 21.9167 14.217 21.9505 14.6507C21.9843 15.0845 22.0007 15.5343 21.9998 16.0001C21.9989 16.4659 21.9821 16.9161 21.9492 17.3507C21.9163 17.7854 21.8665 18.2241 21.7998 18.6667ZM21.2665 10.6667H25.1998C24.5554 9.55564 23.7501 8.58897 22.7838 7.76675C21.8176 6.94453 20.7118 6.33341 19.4665 5.93341C19.8665 6.66675 20.2167 7.42808 20.5172 8.21741C20.8176 9.00675 21.0674 9.82319 21.2665 10.6667ZM13.4665 10.6667H18.5332C18.2665 9.68897 17.9221 8.76675 17.4998 7.90008C17.0776 7.03341 16.5776 6.20008 15.9998 5.40008C15.4221 6.20008 14.9221 7.03341 14.4998 7.90008C14.0776 8.76675 13.7332 9.68897 13.4665 10.6667ZM6.79984 10.6667H10.7332C10.9332 9.8223 11.1834 9.00541 11.4838 8.21608C11.7843 7.42675 12.1341 6.66586 12.5332 5.93341C11.2887 6.33341 10.1829 6.94453 9.21584 7.76675C8.24873 8.58897 7.44339 9.55564 6.79984 10.6667Z" fill="white"/>
</svg>
