<svg width="28" height="28" viewBox="0 0 28 28" fill="none" xmlns="http://www.w3.org/2000/svg">
<path d="M21.2357 10.5585C23.2967 10.5585 25 8.84851 25 6.77928C25 4.71004 23.3074 3 21.2357 3C19.1746 3 17.482 4.71004 17.482 6.77928C17.482 8.84851 19.1746 10.5585 21.2357 10.5585ZM3 19.1952C3 21.0576 3.16292 22.6041 4.26912 23.7147C5.37533 24.8253 6.93789 25 8.79298 25H17.2214C19.0658 25 20.628 24.8257 21.7342 23.7147C22.8413 22.6041 23.0037 21.0576 23.0037 19.1952V11.7783C22.5081 11.9477 21.9868 12.0287 21.4634 12.0177C21.3875 12.0288 21.3333 12.0288 21.2574 12.0395V19.4893C21.2574 20.6217 21.1163 21.776 20.4655 22.4405C19.8036 23.0939 18.6322 23.2463 17.5149 23.2463H8.48935C7.37204 23.2463 6.20012 23.0939 5.54936 22.4405C4.88749 21.776 4.74678 20.6217 4.74678 19.4888V10.5474C4.74678 9.40427 4.88749 8.22769 5.53825 7.57435C6.20012 6.90985 7.38269 6.76812 8.52175 6.76812H16.0069C16.0069 6.69238 16.0175 6.62686 16.0287 6.56134C16.0175 6.01673 16.0935 5.49396 16.267 5.01487H8.76058C6.93789 5.01487 5.37579 5.18913 4.26959 6.30019C3.16292 7.41078 3 8.9684 3 10.7872V19.1952Z" fill="white"/>
</svg>
