<svg width="24" height="24" viewBox="0 0 24 24" fill="none" xmlns="http://www.w3.org/2000/svg">
<path d="M19 9C18.05 9 17.225 8.71667 16.525 8.15C15.825 7.58333 15.3583 6.86667 15.125 6H8.85C8.66667 6.7 8.321 7.30433 7.813 7.813C7.305 8.32167 6.70067 8.66733 6 8.85V15.125C6.86667 15.3583 7.58333 15.825 8.15 16.525C8.71667 17.225 9 18.05 9 19C9 20.1 8.60833 21.0417 7.825 21.825C7.04167 22.6083 6.1 23 5 23C3.9 23 2.95833 22.6083 2.175 21.825C1.39167 21.0417 1 20.1 1 19C1 18.05 1.28333 17.225 1.85 16.525C2.41667 15.825 3.13333 15.3583 4 15.125V8.85C3.13333 8.61667 2.41667 8.15 1.85 7.45C1.28333 6.75 1 5.93333 1 5C1 3.9 1.39167 2.95833 2.175 2.175C2.95833 1.39167 3.9 1 5 1C5.93333 1 6.75 1.28333 7.45 1.85C8.15 2.41667 8.61667 3.13333 8.85 4H15.125C15.3583 3.13333 15.825 2.41667 16.525 1.85C17.225 1.28333 18.05 1 19 1C20.1 1 21.0417 1.39167 21.825 2.175C22.6083 2.95833 23 3.9 23 5C23 6.1 22.6083 7.04167 21.825 7.825C21.0417 8.60833 20.1 9 19 9ZM5 21C5.55 21 6.021 20.8 6.413 20.4C6.805 20 7.00067 19.5333 7 19C7 18.45 6.80433 17.9793 6.413 17.588C6.02167 17.1967 5.55067 17.0007 5 17C4.46667 17 4 17.196 3.6 17.588C3.2 17.98 3 18.4507 3 19C3 19.5333 3.2 20 3.6 20.4C4 20.8 4.46667 21 5 21ZM5 7C5.55 7 6.021 6.80433 6.413 6.413C6.805 6.02167 7.00067 5.55067 7 5C6.99933 4.44933 6.80367 3.97867 6.413 3.588C6.02233 3.19733 5.55133 3.00133 5 3C4.46667 3 4 3.196 3.6 3.588C3.2 3.98 3 4.45067 3 5C3 5.54933 3.2 6.02033 3.6 6.413C4 6.80567 4.46667 7.00133 5 7ZM19 23C17.9 23 16.9583 22.6083 16.175 21.825C15.3917 21.0417 15 20.1 15 19C15 17.9 15.3917 16.9583 16.175 16.175C16.9583 15.3917 17.9 15 19 15C20.1 15 21.0417 15.3917 21.825 16.175C22.6083 16.9583 23 17.9 23 19C23 20.1 22.6083 21.0417 21.825 21.825C21.0417 22.6083 20.1 23 19 23ZM19 21C19.55 21 20.021 20.8 20.413 20.4C20.805 20 21.0007 19.5333 21 19C21 18.45 20.8043 17.9793 20.413 17.588C20.0217 17.1967 19.5507 17.0007 19 17C18.4493 16.9993 17.9787 17.1953 17.588 17.588C17.1973 17.9807 17.0013 18.4513 17 19C17 19.5333 17.196 20 17.588 20.4C17.98 20.8 18.4507 21 19 21ZM19 7C19.55 7 20.021 6.80433 20.413 6.413C20.805 6.02167 21.0007 5.55067 21 5C20.9993 4.44933 20.8037 3.97867 20.413 3.588C20.0223 3.19733 19.5513 3.00133 19 3C18.4487 2.99867 17.978 3.19467 17.588 3.588C17.198 3.98133 17.002 4.452 17 5C16.998 5.548 17.194 6.019 17.588 6.413C17.982 6.807 18.4527 7.00267 19 7Z" fill="black"/>
</svg>
