<svg width="24" height="24" viewBox="0 0 24 24" fill="none" xmlns="http://www.w3.org/2000/svg">
<path d="M11.9349 3.0031C11.9056 3.00838 11.8767 3.01554 11.8484 3.02453C11.6921 3.05951 11.5528 3.14751 11.4542 3.27355C11.3556 3.39959 11.3038 3.55586 11.3077 3.71573V4.40693H5.07692C4.52609 4.40693 3.99782 4.6254 3.60832 5.01428C3.21882 5.40315 3 5.93058 3 6.48054L3 15.4662C3 16.6108 3.93046 17.5398 5.07692 17.5398H11.3077V17.799L7.54292 19.6783C7.37657 19.7586 7.24894 19.9014 7.18812 20.0756C7.12729 20.2497 7.13825 20.4409 7.21858 20.607C7.29891 20.7731 7.44203 20.9005 7.61646 20.9612C7.79089 21.0219 7.98234 21.011 8.14869 20.9308L11.3077 19.3542V19.6134C11.3077 19.7967 11.3806 19.9725 11.5105 20.1021C11.6403 20.2318 11.8164 20.3046 12 20.3046C12.1836 20.3046 12.3597 20.2318 12.4895 20.1021C12.6194 19.9725 12.6923 19.7967 12.6923 19.6134V19.3542L15.8513 20.9308C16.0177 21.011 16.2091 21.0219 16.3835 20.9612C16.558 20.9005 16.7011 20.7731 16.7814 20.607C16.8618 20.4409 16.8727 20.2497 16.8119 20.0756C16.7511 19.9014 16.6234 19.7586 16.4571 19.6783L12.6923 17.799V17.5398H18.9231C20.0695 17.5398 21 16.6108 21 15.4662V6.48054C21 5.93058 20.7812 5.40315 20.3917 5.01428C20.0022 4.6254 19.4739 4.40693 18.9231 4.40693H12.6923V3.71573C12.6958 3.61744 12.6782 3.51954 12.6408 3.42856C12.6034 3.33759 12.5469 3.25563 12.4753 3.18818C12.4036 3.12073 12.3183 3.06932 12.2251 3.03741C12.1319 3.00549 12.033 2.99379 11.9349 3.0031ZM4.38462 6.48054H19.6154V15.4662H4.38462V6.48054ZM17.4519 7.17174C17.2968 7.18839 17.1519 7.25683 17.0407 7.36597L14.7692 9.63449L13.1901 8.05648C13.1145 7.979 13.0217 7.92033 12.9192 7.88519C12.8167 7.85004 12.7074 7.8394 12.6 7.85413C12.4927 7.86885 12.3903 7.90853 12.3011 7.96997C12.2119 8.0314 12.1384 8.11288 12.0865 8.20785L10.0311 11.7938L9.18715 9.67666C9.14617 9.56734 9.07813 9.47017 8.98938 9.3942C8.90062 9.31823 8.79405 9.26594 8.67958 9.2422C8.56512 9.21846 8.4465 9.22404 8.33478 9.25844C8.22306 9.29283 8.12189 9.35491 8.04069 9.43888L5.96377 11.5125C5.89831 11.5778 5.84638 11.6553 5.81093 11.7407C5.77549 11.826 5.75723 11.9175 5.7572 12.0099C5.75717 12.1023 5.77536 12.1938 5.81075 12.2792C5.84613 12.3645 5.89801 12.4421 5.96342 12.5075C6.02884 12.5728 6.1065 12.6247 6.19199 12.6601C6.27747 12.6955 6.3691 12.7137 6.46164 12.7137C6.55418 12.7137 6.64582 12.6956 6.73133 12.6603C6.81684 12.6249 6.89454 12.5731 6.96 12.5078L8.27954 11.1904L9.27508 13.6525C9.32206 13.7759 9.4035 13.8834 9.50975 13.9621C9.61601 14.0408 9.74262 14.0874 9.87461 14.0965C10.0066 14.1056 10.1384 14.0768 10.2545 14.0134C10.3706 13.95 10.466 13.8547 10.5295 13.7389L12.8446 9.69947L14.2722 11.1254C14.3367 11.1921 14.4141 11.2451 14.4996 11.2813C14.5851 11.3176 14.677 11.3362 14.7699 11.3362C14.8628 11.3362 14.9548 11.3176 15.0403 11.2813C15.1258 11.2451 15.2031 11.1921 15.2677 11.1254L18.0369 8.36061C18.1463 8.25952 18.2201 8.1259 18.2473 7.97961C18.2745 7.83332 18.2537 7.68216 18.188 7.54861C18.1223 7.41507 18.0151 7.30625 17.8825 7.23835C17.7499 7.17046 17.5989 7.14709 17.4519 7.17174Z" fill="white"/>
</svg>
