<svg width="32" height="32" viewBox="0 0 32 32" fill="none" xmlns="http://www.w3.org/2000/svg">
<path d="M16 31.5C7.43959 31.5 0.5 24.5604 0.5 16C0.5 7.43959 7.43959 0.5 16 0.5C24.5604 0.5 31.5 7.43959 31.5 16C31.5 24.5604 24.5604 31.5 16 31.5Z" stroke="#146EF5"/>
<path d="M8.09992 15.027C12.3949 13.0513 15.2589 11.7487 16.6919 11.1194C20.7834 9.32264 21.6335 9.01052 22.1877 9.0001C22.3095 8.99794 22.582 9.02983 22.7586 9.18106C22.9076 9.30876 22.9486 9.48125 22.9683 9.60232C22.9879 9.72339 23.0123 9.99919 22.9929 10.2147C22.7712 12.6744 21.8118 18.6434 21.3237 21.3983C21.1172 22.564 20.7105 22.9548 20.3168 22.9931C19.4613 23.0762 18.8116 22.3961 17.9829 21.8226C16.6862 20.9251 15.9537 20.3664 14.695 19.4907C13.2404 18.4786 14.1834 17.9224 15.0124 17.0133C15.2293 16.7754 18.999 13.1552 19.0719 12.8268C19.0811 12.7857 19.0895 12.6326 19.0034 12.5517C18.9172 12.4709 18.7901 12.4985 18.6983 12.5205C18.5683 12.5517 16.4968 13.9973 12.4839 16.8573C11.8959 17.2836 11.3633 17.4913 10.8862 17.4805C10.3601 17.4685 9.34822 17.1664 8.59598 16.9083C7.67333 16.5916 6.94002 16.4242 7.00388 15.8864C7.03714 15.6063 7.40248 15.3198 8.09992 15.027Z" fill="#146EF5"/>
</svg>
