<svg width="32" height="32" viewBox="0 0 32 32" fill="none" xmlns="http://www.w3.org/2000/svg">
<path d="M16.0002 4.79995C17.471 4.79995 18.9274 5.08965 20.2863 5.6525C21.6451 6.21535 22.8798 7.04034 23.9198 8.08036C24.9598 9.12037 25.7848 10.3551 26.3476 11.7139C26.9105 13.0727 27.2002 14.5291 27.2002 16C27.2002 17.4708 26.9105 18.9272 26.3476 20.286C25.7848 21.6449 24.9598 22.8795 23.9198 23.9195C22.8798 24.9596 21.6451 25.7846 20.2863 26.3474C18.9274 26.9103 17.471 27.2 16.0002 27.2V4.79995ZM16.0002 3.19995C12.6054 3.19995 9.34969 4.54852 6.94923 6.94898C4.54876 9.34945 3.2002 12.6052 3.2002 16C3.2002 19.3947 4.54876 22.6505 6.94923 25.0509C9.34969 27.4514 12.6054 28.8 16.0002 28.8C19.395 28.8 22.6507 27.4514 25.0512 25.0509C27.4516 22.6505 28.8002 19.3947 28.8002 16C28.8002 12.6052 27.4516 9.34945 25.0512 6.94898C22.6507 4.54852 19.395 3.19995 16.0002 3.19995Z" fill="white"/>
</svg>
